<svg xmlns="http://www.w3.org/2000/svg" viewBox="360.30 668.99 1000.76 386.79" role="img" aria-label="CCM">
<!--
  Close Crew Marketing — the CCM wordmark.

  Extracted from the supplied cmm-pdf.pdf, not redrawn: these are the original
  Illustrator paths and the original axial shadings, converted from PDF path
  operators. The <g> flip exists because PDF measures y upward from the bottom
  of the page, which lets every coordinate below stay exactly as the artwork
  had it.

  Letterforms only. The PDF's black plate and the purple radial glow behind it
  are presentation, not the mark, so they are left out and this composites onto
  whatever ground it is given.
-->  <defs>
    <linearGradient id="ccm-cm" gradientUnits="userSpaceOnUse"
      x1="968.81" y1="1119.814" x2="1167.53" y2="605.734">
      <stop offset="0" stop-color="#FFFFFF"/>
      <stop offset="0.399441" stop-color="#F5F3FF"/>
      <stop offset="0.888268" stop-color="#7C21FF"/>
      <stop offset="1" stop-color="#7C21FF"/>
    </linearGradient>
    <linearGradient id="ccm-c" gradientUnits="userSpaceOnUse"
      x1="573.405" y1="966.969" x2="772.125" y2="452.889">
      <stop offset="0" stop-color="#FFFFFF"/>
      <stop offset="0.527933" stop-color="#F5F3FF"/>
      <stop offset="1" stop-color="#B32BFF"/>
    </linearGradient>
  </defs>
  <!-- PDF measures y upward from the bottom of the page; this flip lets every
       coordinate below stay exactly as the original artwork had it. -->
  <g transform="translate(0 1728) scale(1 -1)">
    <path fill="url(#ccm-cm)" d="M1163.401 891.063C1159.968 894.073 1156.456 896.982 1153.134 900.094L1153.134 900.094C1118.952 932.115 1084.614 963.974 1050.685 996.261L1050.685 996.261C1006.312 1038.489 953.683 1057.008 892.826 1051.829L892.826 1051.829C810.82 1044.85 740.251 982.885 722.01 902.332L722.01 902.332C696.867 791.3 779.945 681.397 893.931 676.152L893.931 676.152C920.076 674.948 946.289 675.168 972.5 675.388L972.5 675.388C983.965 675.483 995.429 675.58 1006.888 675.557L1006.888 675.557C1033.646 675.503 1087.164 675.546 1087.164 675.546L1087.164 675.546L1009.053 754.117C1009.053 754.117 936.116 753.628 903.981 754.325L903.981 754.325C859.618 755.288 825.696 774.83 805.725 814.927L805.725 814.927C785.846 854.84 791.04 893.395 816.783 929.137L816.783 929.137C854.626 981.677 942.245 990.066 992.164 946.021L992.164 946.021C1015.06 925.818 1037.398 904.983 1060.02 884.47L1060.02 884.47C1092.503 855.013 1125.026 825.603 1157.49 796.127L1157.49 796.127C1160.824 793.101 1163.317 791.397 1167.832 795.244L1167.832 795.244C1200.338 822.929 1233.111 850.302 1265.817 877.754L1265.817 877.754C1270.799 881.935 1275.868 886.014 1280.897 890.141L1280.897 890.141C1281.527 889.89 1282.157 889.639 1282.788 889.389L1282.788 889.389C1282.788 850.03 1283.458 802.172 1284.053 771.153L1284.053 771.153L1284.053 675.117L1359.053 675.117L1358.591 794.117L1358.591 1053.361C1293.214 999 1228.513 945.202 1163.401 891.063Z"/>
    <path fill="url(#ccm-c)" d="M446.703 1013.292C389.857 969.435 362.298 911.161 370.309 839.497L370.309 839.497C380.753 746.068 460.424 675.747 554.704 674.929L554.704 674.929C636.213 674.221 717.735 675.016 799.25 675.146L799.25 675.146C802.9 675.151 806.548 675.148 810.198 675.146L810.198 675.146L820.52 675.117L801.64 683.28C772.009 696.985 759.275 709.141 742.056 729.136L742.056 729.136L725.251 751.666C725.251 751.666 651.184 751.848 623.413 751.974L623.413 751.974C616.337 752.006 609.255 751.958 602.172 751.911L602.172 751.911C583.744 751.788 565.311 751.664 546.979 752.94L546.979 752.94C468.089 758.429 421.072 845.599 459.537 914.563L459.537 914.563C481.343 953.66 515.817 971.787 560.021 972.04L560.021 972.04C603.187 972.288 646.356 972.337 689.523 972.296L689.523 972.296L721.053 972.117L729.457 985.564C741.744 1003.512 756.76 1018.999 774.762 1031.582L774.762 1031.582C782.733 1037.152 791.002 1042.294 800.697 1048.656L800.697 1048.656C797.31 1048.656 795.595 1048.642 793.881 1048.657L793.881 1048.657C715.585 1049.364 637.289 1050.244 558.991 1050.712L558.991 1050.712C558.583 1050.715 558.17 1050.716 557.762 1050.716L557.762 1050.716C516.69 1050.717 479.212 1038.372 446.703 1013.292Z"/>
  </g>
</svg>
